<svg xmlns="http://www.w3.org/2000/svg" viewBox="0 0 81.56 81.56"><defs><style>.cls-1{fill:#fd7948;stroke:#fd7948;stroke-miterlimit:10;}</style></defs><title>new-red-x</title><g id="Layer_2" data-name="Layer 2"><g id="Layer_2-2" data-name="Layer 2"><path class="cls-1" d="M79.3,69.72l-29-29L79.08,11.84a6.06,6.06,0,0,0,0-8.53l-.83-.82a6,6,0,0,0-8.53,0L40.89,31.31l-29-29a6,6,0,0,0-8.53,0l-.82.83a6,6,0,0,0,0,8.52L31.54,40.67,2.26,70a6,6,0,0,0,0,8.53l.83.82a6,6,0,0,0,8.52,0L40.89,50,70,79.08a6.06,6.06,0,0,0,8.53,0l.82-.83A6,6,0,0,0,79.3,69.72Z"/></g></g></svg>